# xmcd
#
# Track frame offsets: 
#        150
#        22965
#        40690
#        71635
#        92855
#        112940
#        131850
#        154033
#        174890
#        192685
#
# Disc length: 2808 seconds
#
# Revision: 1
# Processed by: cddbd v1.5.2PL0 Copyright (c) Steve Scherf et al.
# Submitted via: ExactAudioCopy v1.0b3
#
DISCID=800af60a
DTITLE=楊克強 - 無助的心
DYEAR=1991
DGENRE=CPop
TTITLE0=無助的心
TTITLE1=寫給你的歌
TTITLE2=最難忘的錯
TTITLE3=TELEPHONE
TTITLE4=將過去和你慢慢拭去
TTITLE5=也許不該
TTITLE6=午後的風
TTITLE7=如何開口向昨天說再見
TTITLE8=錯過的一場夢
TTITLE9=消失在夜裡
EXTD=
EXTT0=
EXTT1=
EXTT2=
EXTT3=
EXTT4=
EXTT5=
EXTT6=
EXTT7=
EXTT8=
EXTT9=
PLAYORDER=
